<svg width="99" height="15" fill="none" xmlns="http://www.w3.org/2000/svg"><path d="M.585 14V.91h4.423c1.027 0 1.867.184 2.519.555.656.367 1.142.863 1.457 1.49.316.626.473 1.325.473 2.096 0 .771-.157 1.472-.473 2.103-.31.63-.792 1.134-1.444 1.509-.652.37-1.487.556-2.506.556h-3.17V7.813h3.119c.703 0 1.268-.122 1.694-.365.426-.243.735-.57.927-.984.196-.418.294-.889.294-1.413s-.098-.993-.294-1.406a2.098 2.098 0 0 0-.934-.972c-.43-.238-1.001-.358-1.713-.358H2.17V14H.585ZM14.696 14.23a3.99 3.99 0 0 1-1.694-.351 2.907 2.907 0 0 1-1.208-1.03c-.299-.451-.448-.997-.448-1.636 0-.562.111-1.018.333-1.368.221-.354.517-.63.888-.83.37-.201.78-.35 1.227-.448.452-.103.906-.183 1.362-.243.596-.077 1.08-.134 1.45-.173.376-.042.649-.113.819-.21.175-.099.262-.27.262-.512v-.051c0-.63-.172-1.12-.518-1.47-.34-.35-.858-.524-1.553-.524-.72 0-1.285.157-1.694.473-.409.315-.697.652-.863 1.01l-1.431-.512c.255-.596.596-1.061 1.022-1.393.43-.337.9-.571 1.406-.703a5.839 5.839 0 0 1 1.509-.205c.315 0 .678.038 1.087.115.413.072.811.224 1.195.454.388.23.71.577.965 1.042.256.464.384 1.086.384 1.866V14h-1.509v-1.33h-.077a2.658 2.658 0 0 1-.51.684c-.24.243-.557.45-.953.62-.397.17-.88.256-1.451.256Zm.23-1.355c.596 0 1.1-.117 1.508-.352a2.393 2.393 0 0 0 1.253-2.077v-1.38c-.064.076-.204.146-.422.21-.213.06-.46.113-.741.16a33.747 33.747 0 0 1-1.445.192 5.762 5.762 0 0 0-1.1.25c-.336.11-.609.278-.817.504-.205.222-.307.524-.307.908 0 .524.194.92.581 1.189.393.264.889.396 1.49.396ZM29.236.5l.767.92c-.298.29-.643.493-1.035.608a5.792 5.792 0 0 1-1.33.21c-.494.026-1.044.052-1.65.077-.681.026-1.246.192-1.693.499-.448.307-.793.75-1.036 1.33-.242.579-.398 1.29-.466 2.134h.128c.332-.613.792-1.065 1.38-1.355a4.223 4.223 0 0 1 1.892-.434c.767 0 1.458.179 2.071.537.614.358 1.1.888 1.458 1.591.358.703.537 1.57.537 2.602 0 1.027-.184 1.913-.55 2.659-.362.746-.872 1.32-1.528 1.726-.652.4-1.417.6-2.294.6-.878 0-1.648-.206-2.308-.62-.66-.417-1.174-1.035-1.54-1.853-.367-.823-.55-1.839-.55-3.05V7.635c0-2.187.37-3.844 1.112-4.973.746-1.13 1.867-1.714 3.362-1.752.529-.017 1-.021 1.413-.013.413.009.773-.01 1.08-.057.307-.047.567-.16.78-.339Zm-3.35 12.35c.593 0 1.102-.15 1.528-.448.43-.298.76-.718.991-1.26.23-.545.345-1.186.345-1.923 0-.716-.117-1.326-.351-1.828-.23-.503-.56-.887-.991-1.15-.43-.265-.946-.397-1.547-.397-.439 0-.833.074-1.183.223a2.4 2.4 0 0 0-.895.659c-.247.29-.438.643-.575 1.06a5.008 5.008 0 0 0-.21 1.433c0 1.1.257 1.98.773 2.64.515.66 1.22.99 2.116.99ZM36.555 14.204c-.886 0-1.664-.21-2.333-.632-.665-.422-1.185-1.012-1.56-1.77-.37-.76-.556-1.646-.556-2.66 0-1.023.185-1.915.556-2.678.375-.763.895-1.355 1.56-1.777.669-.422 1.447-.633 2.333-.633.886 0 1.662.21 2.327.633.669.422 1.189 1.014 1.56 1.777.374.763.562 1.655.562 2.678 0 1.014-.188 1.9-.563 2.66-.37.758-.89 1.348-1.56 1.77-.664.422-1.44.633-2.326.633Zm0-1.355c.673 0 1.227-.172 1.662-.517.434-.346.756-.8.965-1.362a5.213 5.213 0 0 0 .313-1.828c0-.656-.104-1.268-.313-1.834a3.092 3.092 0 0 0-.965-1.375c-.435-.35-.989-.524-1.662-.524-.673 0-1.227.175-1.662.524-.435.35-.757.808-.965 1.375a5.266 5.266 0 0 0-.313 1.834c0 .656.104 1.266.313 1.828.209.563.53 1.016.965 1.362.435.345.989.517 1.662.517ZM42.023 5.588V4.182H50v1.406H46.78V14H45.27V5.588h-3.247ZM53.505 7.736h2.813c1.15 0 2.03.292 2.64.876.609.583.913 1.323.913 2.217 0 .589-.136 1.123-.409 1.605-.272.477-.673.859-1.201 1.144-.529.281-1.177.422-1.944.422h-4.116V4.182h1.508v8.412h2.608c.597 0 1.087-.158 1.47-.473.384-.316.576-.72.576-1.215 0-.52-.192-.944-.575-1.272-.384-.328-.874-.492-1.47-.492h-2.813V7.736ZM61.43 14V4.182h1.509V14H61.43ZM75.34.91V14h-1.585V2.571h-.077l-3.196 2.122v-1.61L73.755.908h1.585ZM83.298 14.179c-.878 0-1.653-.156-2.326-.467-.67-.315-1.191-.748-1.566-1.297a3.26 3.26 0 0 1-.557-1.892 3.479 3.479 0 0 1 .326-1.534c.222-.473.525-.868.908-1.183.388-.32.82-.522 1.298-.607v-.077a2.527 2.527 0 0 1-1.496-1.055 3.195 3.195 0 0 1-.55-1.86 3.16 3.16 0 0 1 .505-1.783c.341-.524.81-.937 1.406-1.24.601-.303 1.285-.454 2.052-.454.759 0 1.436.151 2.033.454a3.556 3.556 0 0 1 1.406 1.24c.345.524.52 1.119.524 1.783a3.241 3.241 0 0 1-.569 1.86c-.37.542-.862.893-1.476 1.055V7.2c.473.085.899.288 1.278.607.38.315.682.71.908 1.183.226.468.34.98.345 1.534a3.307 3.307 0 0 1-.575 1.892c-.375.55-.897.982-1.566 1.297-.665.311-1.434.467-2.308.467Zm0-1.406c.593 0 1.104-.096 1.534-.288.43-.192.763-.462.998-.812.234-.35.353-.758.358-1.227a2.355 2.355 0 0 0-.384-1.31 2.602 2.602 0 0 0-1.03-.895c-.43-.218-.922-.326-1.476-.326-.558 0-1.056.108-1.496.326a2.602 2.602 0 0 0-1.029.895c-.247.379-.368.816-.364 1.31-.004.469.109.878.339 1.227.234.35.569.62 1.003.812.435.192.95.288 1.547.288Zm0-6.213c.469 0 .885-.094 1.247-.282.366-.187.654-.45.863-.786.209-.336.315-.73.32-1.182-.005-.444-.11-.83-.314-1.157a2.032 2.032 0 0 0-.85-.767c-.362-.184-.784-.275-1.266-.275-.49 0-.918.091-1.285.275-.366.179-.65.434-.85.767-.2.328-.298.713-.294 1.157-.004.451.096.846.3 1.182.21.337.497.599.864.786.366.188.788.282 1.265.282ZM94.058 11.699V3.26h1.431V11.7h-1.431Zm-3.503-3.503V6.764h8.437v1.432h-8.437Z" fill="#fff"/></svg>