<svg width="122" height="26" fill="none" xmlns="http://www.w3.org/2000/svg"><path d="M.906 25V1h8.39c1.673 0 3.052.29 4.138.867 1.086.57 1.894 1.34 2.425 2.309.532.96.797 2.027.797 3.199 0 1.031-.183 1.883-.55 2.555a4.284 4.284 0 0 1-1.43 1.593c-.586.391-1.223.68-1.91.868v.234c.734.047 1.472.305 2.214.773.743.47 1.364 1.141 1.864 2.016s.75 1.945.75 3.211c0 1.203-.274 2.285-.82 3.246-.547.961-1.41 1.723-2.59 2.285-1.18.563-2.715.844-4.606.844H.906Zm2.906-2.578h5.766c1.899 0 3.246-.367 4.043-1.102.805-.742 1.207-1.64 1.207-2.695a4.28 4.28 0 0 0-.621-2.25c-.414-.695-1.004-1.25-1.77-1.664-.765-.422-1.671-.633-2.718-.633H3.813v8.344Zm0-10.875h5.391c.875 0 1.664-.172 2.367-.516a4.138 4.138 0 0 0 1.688-1.453c.422-.625.633-1.36.633-2.203 0-1.055-.368-1.95-1.102-2.684-.734-.742-1.898-1.113-3.492-1.113H3.812v7.969ZM21.994 25V7h2.672v2.719h.188c.328-.89.921-1.614 1.78-2.168.86-.555 1.829-.832 2.907-.832.203 0 .457.004.762.011.304.008.535.02.691.036v2.812a8.209 8.209 0 0 0-.644-.105 6.343 6.343 0 0 0-1.043-.082c-.875 0-1.657.183-2.344.55-.68.36-1.219.86-1.617 1.5-.39.633-.586 1.356-.586 2.168V25h-2.766ZM41.037 25.375c-1.625 0-3.05-.387-4.277-1.16-1.219-.774-2.172-1.856-2.86-3.246-.68-1.39-1.02-3.016-1.02-4.875 0-1.875.34-3.512 1.02-4.91.688-1.399 1.641-2.485 2.86-3.258 1.226-.774 2.652-1.16 4.277-1.16s3.047.386 4.266 1.16c1.226.773 2.18 1.86 2.86 3.258.687 1.398 1.03 3.035 1.03 4.91 0 1.86-.343 3.484-1.03 4.875-.68 1.39-1.634 2.472-2.86 3.246-1.219.773-2.64 1.16-4.266 1.16Zm0-2.484c1.235 0 2.25-.317 3.047-.95.797-.632 1.387-1.464 1.77-2.496.382-1.03.574-2.148.574-3.351 0-1.203-.192-2.325-.575-3.364-.382-1.039-.972-1.878-1.769-2.52-.797-.64-1.813-.96-3.047-.96-1.234 0-2.25.32-3.047.96-.797.642-1.387 1.481-1.77 2.52-.382 1.04-.573 2.16-.573 3.364 0 1.203.19 2.32.574 3.351.383 1.032.972 1.864 1.77 2.496.796.633 1.812.95 3.046.95ZM56.88 25 51.398 7h2.906l3.89 13.781h.188L62.225 7h2.953l3.797 13.734h.187L73.052 7h2.907l-5.484 18h-2.72l-3.937-13.828h-.28L59.6 25h-2.72ZM82.38 14.172V25h-2.765V7h2.672v2.813h.234a5.14 5.14 0 0 1 1.922-2.204c.86-.562 1.97-.843 3.329-.843 1.218 0 2.285.25 3.199.75.914.492 1.625 1.242 2.132 2.25.508 1 .762 2.265.762 3.796V25H91.1V13.75c0-1.414-.368-2.516-1.102-3.305-.734-.797-1.742-1.195-3.023-1.195-.883 0-1.672.191-2.368.574-.687.383-1.23.942-1.629 1.676-.398.734-.597 1.625-.597 2.672ZM98.919 25V7h2.766v18h-2.766Zm1.406-21a1.966 1.966 0 0 1-1.394-.55 1.77 1.77 0 0 1-.575-1.325c0-.516.192-.957.575-1.324.39-.367.855-.551 1.394-.551.539 0 1 .184 1.383.55.391.368.586.81.586 1.325 0 .516-.195.957-.586 1.324-.383.367-.844.551-1.383.551ZM114.297 25.375c-1.735 0-3.231-.383-4.488-1.148-1.25-.774-2.215-1.852-2.895-3.235-.672-1.39-1.008-3.008-1.008-4.851 0-1.844.336-3.47 1.008-4.875.68-1.414 1.625-2.516 2.836-3.305 1.219-.797 2.641-1.195 4.266-1.195.937 0 1.863.156 2.777.468.914.313 1.746.82 2.496 1.524.75.695 1.348 1.617 1.793 2.765.445 1.149.668 2.563.668 4.243v1.171h-13.875v-2.39h11.063c0-1.016-.204-1.922-.61-2.719a4.59 4.59 0 0 0-1.711-1.887c-.734-.46-1.601-.691-2.601-.691-1.102 0-2.055.273-2.86.82a5.398 5.398 0 0 0-1.84 2.11 6.206 6.206 0 0 0-.644 2.789v1.594c0 1.359.234 2.511.703 3.457.477.937 1.137 1.652 1.98 2.144.844.484 1.825.727 2.942.727.726 0 1.383-.102 1.969-.305a4.221 4.221 0 0 0 1.535-.938c.429-.421.762-.945.996-1.57l2.672.75a5.934 5.934 0 0 1-1.418 2.39c-.664.68-1.485 1.212-2.461 1.595-.977.375-2.074.562-3.293.562Z" fill="#fff"/></svg>