<svg width="141" height="18" fill="none" xmlns="http://www.w3.org/2000/svg"><path d="M8.486.91v1.405H2.17V14H.585V.91h7.9ZM13.299 14.204c-.886 0-1.664-.21-2.333-.632-.665-.422-1.185-1.012-1.56-1.77-.37-.76-.556-1.646-.556-2.66 0-1.023.186-1.915.556-2.678.375-.763.895-1.355 1.56-1.777.669-.422 1.447-.633 2.333-.633.886 0 1.662.21 2.327.633.669.422 1.189 1.014 1.56 1.777.374.763.562 1.655.562 2.678 0 1.014-.188 1.9-.563 2.66-.37.758-.89 1.348-1.56 1.77-.664.422-1.44.633-2.326.633Zm0-1.355c.673 0 1.227-.172 1.662-.517.435-.346.756-.8.965-1.362a5.21 5.21 0 0 0 .313-1.828c0-.656-.104-1.268-.313-1.834a3.092 3.092 0 0 0-.965-1.375c-.435-.35-.989-.524-1.662-.524-.673 0-1.227.175-1.662.524-.435.35-.756.808-.965 1.375a5.266 5.266 0 0 0-.313 1.834c0 .656.104 1.266.313 1.828.209.563.53 1.016.965 1.362.435.345.989.517 1.662.517ZM18.767 5.588V4.182h7.978v1.406h-3.222V14h-1.508V5.588h-3.248ZM32.424 14.204c-.886 0-1.664-.21-2.333-.632-.665-.422-1.185-1.012-1.56-1.77-.37-.76-.556-1.646-.556-2.66 0-1.023.185-1.915.556-2.678.375-.763.895-1.355 1.56-1.777.669-.422 1.447-.633 2.333-.633.886 0 1.662.21 2.327.633.669.422 1.189 1.014 1.56 1.777.374.763.562 1.655.562 2.678 0 1.014-.188 1.9-.563 2.66-.37.758-.89 1.348-1.56 1.77-.664.422-1.44.633-2.326.633Zm0-1.355c.673 0 1.227-.172 1.662-.517.435-.346.756-.8.965-1.362a5.21 5.21 0 0 0 .313-1.828c0-.656-.104-1.268-.313-1.834a3.092 3.092 0 0 0-.965-1.375c-.435-.35-.989-.524-1.662-.524-.673 0-1.227.175-1.662.524-.435.35-.756.808-.965 1.375a5.266 5.266 0 0 0-.313 1.834c0 .656.104 1.266.313 1.828.209.563.53 1.016.965 1.362.435.345.989.517 1.662.517ZM39.176 14V4.182h4.014c1.057 0 1.896.238 2.518.716.622.477.934 1.108.934 1.892 0 .596-.177 1.059-.531 1.387-.354.324-.807.543-1.361.658.362.051.713.18 1.054.384.345.204.63.486.857.844.225.353.338.788.338 1.303 0 .503-.127.953-.383 1.35-.256.396-.622.709-1.1.939-.477.23-1.048.345-1.712.345h-4.628Zm1.431-1.38h3.197c.52 0 .926-.124 1.22-.371.294-.248.441-.584.441-1.01 0-.508-.147-.906-.44-1.196-.295-.294-.702-.44-1.221-.44h-3.197v3.016Zm0-4.322h2.583c.405 0 .752-.055 1.042-.166.29-.115.511-.277.665-.486.157-.213.236-.464.236-.754 0-.413-.173-.737-.518-.972-.345-.238-.82-.357-1.425-.357h-2.583v2.735ZM50.587 7.736H53.4c1.15 0 2.03.292 2.64.876.609.583.913 1.323.913 2.217 0 .589-.136 1.123-.409 1.605-.272.477-.673.859-1.201 1.144-.529.281-1.176.422-1.944.422h-4.116V4.182h1.509v8.412H53.4c.596 0 1.086-.158 1.47-.473.383-.316.575-.72.575-1.215 0-.52-.192-.944-.575-1.272-.384-.328-.874-.492-1.47-.492h-2.813V7.736ZM58.513 14V4.182h1.509V14h-1.509ZM66.9 14.204c-.947 0-1.763-.208-2.449-.626a4.205 4.205 0 0 1-1.578-1.764c-.367-.759-.55-1.64-.55-2.646s.183-1.892.55-2.66c.37-.77.886-1.372 1.546-1.802.665-.435 1.44-.652 2.327-.652.511 0 1.016.085 1.515.256.499.17.952.447 1.362.83.409.38.735.883.977 1.51.243.626.365 1.397.365 2.313v.64h-7.568V8.297h6.034c0-.554-.111-1.048-.333-1.483a2.505 2.505 0 0 0-.933-1.029c-.4-.251-.873-.377-1.419-.377-.6 0-1.12.15-1.56.448-.434.294-.769.677-1.003 1.15a3.38 3.38 0 0 0-.352 1.521v.87c0 .741.128 1.37.384 1.885.26.512.62.902 1.08 1.17.46.264.995.396 1.605.396.396 0 .754-.055 1.073-.166.324-.115.603-.285.838-.511.234-.23.415-.516.543-.857l1.457.41a3.23 3.23 0 0 1-.773 1.303c-.362.371-.81.66-1.342.87-.533.204-1.132.306-1.796.306ZM78.322 17.682v-13.5h1.457v1.56h.18c.11-.171.264-.388.46-.653.2-.268.486-.507.856-.715.375-.213.882-.32 1.521-.32.827 0 1.556.207 2.187.62.63.413 1.123 1 1.476 1.758.354.758.53 1.653.53 2.684 0 1.04-.176 1.941-.53 2.704-.353.759-.844 1.347-1.47 1.764-.626.414-1.349.62-2.167.62-.63 0-1.136-.104-1.515-.313-.38-.213-.671-.454-.876-.722a9.646 9.646 0 0 1-.472-.678h-.128v5.19h-1.509Zm1.483-8.591c0 .741.109 1.396.326 1.962.217.563.535 1.004.953 1.323.417.316.928.473 1.534.473.63 0 1.157-.166 1.578-.498.427-.337.746-.789.96-1.355a5.318 5.318 0 0 0 .325-1.905c0-.69-.106-1.313-.32-1.867-.208-.558-.526-.999-.952-1.323-.422-.328-.952-.492-1.591-.492-.614 0-1.13.156-1.547.467-.418.307-.733.737-.946 1.29-.213.55-.32 1.192-.32 1.925ZM92.18 14.23a3.99 3.99 0 0 1-1.694-.351 2.907 2.907 0 0 1-1.208-1.03c-.298-.451-.447-.997-.447-1.636 0-.562.11-1.018.332-1.368.222-.354.518-.63.889-.83.37-.201.78-.35 1.227-.448.452-.103.905-.183 1.361-.243.597-.077 1.08-.134 1.451-.173.375-.042.648-.113.819-.21.174-.099.261-.27.261-.512v-.051c0-.63-.172-1.12-.517-1.47-.341-.35-.859-.524-1.553-.524-.72 0-1.285.157-1.694.473-.41.315-.697.652-.863 1.01l-1.432-.512c.256-.596.597-1.061 1.023-1.393.43-.337.899-.571 1.406-.703a5.84 5.84 0 0 1 1.508-.205c.316 0 .678.038 1.087.115.413.072.812.224 1.195.454.388.23.71.577.965 1.042.256.464.384 1.086.384 1.866V14h-1.509v-1.33h-.076a2.655 2.655 0 0 1-.511.684c-.24.243-.557.45-.953.62-.396.17-.88.256-1.45.256Zm.23-1.355c.597 0 1.1-.117 1.509-.352a2.393 2.393 0 0 0 1.252-2.077v-1.38c-.063.076-.204.146-.421.21-.213.06-.46.113-.742.16a33.747 33.747 0 0 1-1.444.192 5.764 5.764 0 0 0-1.1.25c-.337.11-.61.278-.818.504-.205.222-.307.524-.307.908 0 .524.194.92.582 1.189.392.264.888.396 1.49.396ZM106.72.5l.767.92c-.298.29-.643.493-1.035.608a5.79 5.79 0 0 1-1.33.21c-.494.026-1.044.052-1.649.077-.682.026-1.246.192-1.694.499-.447.307-.792.75-1.035 1.33-.243.579-.399 1.29-.467 2.134h.128c.332-.613.793-1.065 1.381-1.355a4.22 4.22 0 0 1 1.892-.434c.767 0 1.457.179 2.071.537.613.358 1.099.888 1.457 1.591.358.703.537 1.57.537 2.602 0 1.027-.183 1.913-.55 2.659-.362.746-.871 1.32-1.527 1.726-.652.4-1.417.6-2.295.6-.878 0-1.647-.206-2.308-.62-.66-.417-1.174-1.035-1.54-1.853-.367-.823-.55-1.839-.55-3.05V7.635c0-2.187.37-3.844 1.112-4.973.746-1.13 1.867-1.714 3.363-1.752.528-.017.999-.021 1.412-.013.414.009.774-.01 1.081-.057.306-.047.566-.16.779-.339Zm-3.349 12.35c.592 0 1.101-.15 1.528-.448.43-.298.76-.718.99-1.26.231-.545.346-1.186.346-1.923 0-.716-.118-1.326-.352-1.828-.23-.503-.56-.887-.991-1.15-.43-.265-.946-.397-1.547-.397a2.98 2.98 0 0 0-1.182.223c-.35.15-.648.37-.895.659-.247.29-.439.643-.575 1.06a4.998 4.998 0 0 0-.211 1.433c0 1.1.258 1.98.773 2.64.516.66 1.221.99 2.116.99ZM114.039 14.204c-.886 0-1.664-.21-2.333-.632-.665-.422-1.185-1.012-1.56-1.77-.37-.76-.556-1.646-.556-2.66 0-1.023.186-1.915.556-2.678.375-.763.895-1.355 1.56-1.777.669-.422 1.447-.633 2.333-.633.887 0 1.662.21 2.327.633.669.422 1.189 1.014 1.56 1.777.375.763.562 1.655.562 2.678 0 1.014-.187 1.9-.562 2.66-.371.758-.891 1.348-1.56 1.77-.665.422-1.44.633-2.327.633Zm0-1.355c.674 0 1.228-.172 1.662-.517.435-.346.757-.8.965-1.362a5.209 5.209 0 0 0 .314-1.828c0-.656-.105-1.268-.314-1.834a3.083 3.083 0 0 0-.965-1.375c-.434-.35-.988-.524-1.662-.524-.673 0-1.227.175-1.662.524-.434.35-.756.808-.965 1.375a5.261 5.261 0 0 0-.313 1.834c0 .656.104 1.266.313 1.828.209.563.531 1.016.965 1.362.435.345.989.517 1.662.517ZM119.508 5.588V4.182h7.977v1.406h-3.222V14h-1.508V5.588h-3.247ZM130.989 7.736h2.813c1.15 0 2.03.292 2.64.876.609.583.914 1.323.914 2.217 0 .589-.137 1.123-.409 1.605-.273.477-.674.859-1.202 1.144-.528.281-1.176.422-1.943.422h-4.117V4.182h1.509v8.412h2.608c.596 0 1.086-.158 1.47-.473a1.5 1.5 0 0 0 .575-1.215c0-.52-.191-.944-.575-1.272-.384-.328-.874-.492-1.47-.492h-2.813V7.736ZM138.915 14V4.182h1.509V14h-1.509Z" fill="#fff"/></svg>