<svg width="84" height="18" fill="none" xmlns="http://www.w3.org/2000/svg"><path d="M.585 14V.91H2.17v5.829h6.98V.909h1.586V14H9.15V8.145H2.17V14H.584ZM16.594 14.23a3.99 3.99 0 0 1-1.694-.351 2.907 2.907 0 0 1-1.208-1.03c-.298-.451-.447-.997-.447-1.636 0-.562.11-1.018.332-1.368.222-.354.518-.63.889-.83.37-.201.78-.35 1.227-.448.452-.103.905-.183 1.361-.243.597-.077 1.08-.134 1.451-.173.375-.042.648-.113.819-.21.174-.099.262-.27.262-.512v-.051c0-.63-.173-1.12-.518-1.47-.341-.35-.859-.524-1.553-.524-.72 0-1.285.157-1.694.473-.41.315-.697.652-.863 1.01l-1.432-.512c.256-.596.597-1.061 1.023-1.393.43-.337.899-.571 1.406-.703a5.839 5.839 0 0 1 1.508-.205c.316 0 .678.038 1.087.115.413.072.812.224 1.195.454.388.23.71.577.966 1.042.255.464.383 1.086.383 1.866V14h-1.508v-1.33h-.077a2.656 2.656 0 0 1-.512.684c-.238.243-.556.45-.952.62-.396.17-.88.256-1.45.256Zm.23-1.355c.597 0 1.1-.117 1.509-.352a2.393 2.393 0 0 0 1.253-2.077v-1.38c-.064.076-.205.146-.422.21-.213.06-.46.113-.742.16a33.675 33.675 0 0 1-1.444.192 5.763 5.763 0 0 0-1.1.25c-.336.11-.61.278-.818.504-.205.222-.307.524-.307.908 0 .524.194.92.582 1.189.392.264.888.396 1.49.396ZM31.134.5l.767.92c-.298.29-.643.493-1.035.608a5.793 5.793 0 0 1-1.33.21c-.494.026-1.044.052-1.649.077-.682.026-1.246.192-1.694.499-.447.307-.792.75-1.035 1.33-.243.579-.399 1.29-.467 2.134h.128c.332-.613.793-1.065 1.38-1.355a4.223 4.223 0 0 1 1.893-.434c.767 0 1.457.179 2.07.537.614.358 1.1.888 1.458 1.591.358.703.537 1.57.537 2.602 0 1.027-.183 1.913-.55 2.659-.362.746-.871 1.32-1.527 1.726-.652.4-1.417.6-2.295.6-.878 0-1.647-.206-2.308-.62-.66-.417-1.174-1.035-1.54-1.853-.367-.823-.55-1.839-.55-3.05V7.635c0-2.187.371-3.844 1.113-4.973.745-1.13 1.866-1.714 3.362-1.752.528-.017.999-.021 1.412-.013.414.009.774-.01 1.08-.057.307-.047.567-.16.78-.339Zm-3.349 12.35c.592 0 1.102-.15 1.528-.448.43-.298.76-.718.99-1.26.23-.545.346-1.186.346-1.923 0-.716-.118-1.326-.352-1.828-.23-.503-.56-.887-.99-1.15-.431-.265-.947-.397-1.548-.397-.439 0-.833.074-1.182.223a2.4 2.4 0 0 0-.895.659c-.247.29-.439.643-.575 1.06a5.012 5.012 0 0 0-.211 1.433c0 1.1.258 1.98.773 2.64.516.66 1.221.99 2.116.99ZM34.465 17.682v-13.5h1.457v1.56h.179c.11-.171.264-.388.46-.653.2-.268.486-.507.857-.715.375-.213.882-.32 1.521-.32.827 0 1.556.207 2.186.62.63.413 1.123 1 1.477 1.758.353.758.53 1.653.53 2.684 0 1.04-.177 1.941-.53 2.704-.354.759-.844 1.347-1.47 1.764-.627.414-1.35.62-2.167.62-.631 0-1.136-.104-1.515-.313-.38-.213-.671-.454-.876-.722a9.653 9.653 0 0 1-.473-.678h-.128v5.19h-1.508Zm1.483-8.591c0 .741.108 1.396.326 1.962.217.563.534 1.004.952 1.323.418.316.929.473 1.534.473.63 0 1.157-.166 1.579-.498.426-.337.746-.789.959-1.355a5.318 5.318 0 0 0 .326-1.905c0-.69-.107-1.313-.32-1.867-.209-.558-.526-.999-.952-1.323-.422-.328-.953-.492-1.592-.492-.613 0-1.13.156-1.547.467-.417.307-.733.737-.946 1.29-.213.55-.32 1.192-.32 1.925ZM49.422 14.204c-.886 0-1.664-.21-2.333-.632-.665-.422-1.185-1.012-1.56-1.77-.37-.76-.556-1.646-.556-2.66 0-1.023.186-1.915.556-2.678.375-.763.895-1.355 1.56-1.777.669-.422 1.447-.633 2.333-.633.886 0 1.662.21 2.327.633.669.422 1.189 1.014 1.56 1.777.374.763.562 1.655.562 2.678 0 1.014-.188 1.9-.563 2.66-.37.758-.89 1.348-1.56 1.77-.664.422-1.44.633-2.326.633Zm0-1.355c.673 0 1.227-.172 1.662-.517.435-.346.756-.8.965-1.362a5.213 5.213 0 0 0 .313-1.828c0-.656-.104-1.268-.313-1.834a3.092 3.092 0 0 0-.965-1.375c-.435-.35-.989-.524-1.662-.524-.673 0-1.227.175-1.662.524-.434.35-.756.808-.965 1.375a5.266 5.266 0 0 0-.313 1.834c0 .656.104 1.266.313 1.828.209.563.53 1.016.965 1.362.435.345.989.517 1.662.517ZM60.162 14.204c-.92 0-1.713-.217-2.377-.651-.665-.435-1.177-1.034-1.535-1.797-.358-.762-.537-1.634-.537-2.614 0-.997.184-1.877.55-2.64.37-.767.887-1.366 1.547-1.796.665-.435 1.44-.652 2.327-.652.69 0 1.312.128 1.866.383a3.574 3.574 0 0 1 1.362 1.074c.353.46.573.998.658 1.611h-1.508c-.115-.447-.371-.844-.767-1.189-.392-.35-.92-.524-1.586-.524-.588 0-1.103.154-1.547.46-.439.303-.782.731-1.029 1.285-.243.55-.364 1.195-.364 1.937 0 .758.12 1.419.358 1.981.243.563.584 1 1.023 1.31.443.312.963.467 1.56.467.391 0 .747-.068 1.067-.204.32-.136.59-.332.812-.588.221-.256.379-.563.473-.92h1.508a3.495 3.495 0 0 1-.633 1.565c-.332.46-.773.827-1.323 1.1-.545.268-1.18.402-1.905.402ZM66.228 14V4.182h1.509v4.27h.997l3.528-4.27h1.944l-3.963 4.73L74.257 14h-1.943l-3.222-4.142h-1.355V14h-1.509ZM77.405 11.776l4.73-7.594h1.739V14h-1.509V6.406L77.661 14h-1.765V4.182h1.509v7.594Z" fill="#fff"/></svg>