<svg width="158" height="20" fill="none" xmlns="http://www.w3.org/2000/svg"><path d="M13.034 7.727c0 1.534-.277 2.86-.83 3.977-.555 1.118-1.315 1.98-2.28 2.586-.967.606-2.07.909-3.31.909-1.24 0-2.344-.303-3.31-.91-.966-.605-1.726-1.467-2.28-2.585-.554-1.117-.83-2.443-.83-3.977 0-1.534.276-2.86.83-3.977.554-1.117 1.314-1.98 2.28-2.585.966-.606 2.07-.91 3.31-.91 1.24 0 2.343.304 3.31.91.965.606 1.725 1.468 2.28 2.585.553 1.117.83 2.443.83 3.977Zm-1.705 0c0-1.26-.21-2.322-.632-3.189-.416-.866-.982-1.522-1.697-1.967a4.401 4.401 0 0 0-2.386-.668c-.881 0-1.679.223-2.394.668-.71.445-1.276 1.1-1.697 1.967-.417.867-.625 1.93-.625 3.19 0 1.259.208 2.322.625 3.188.421.867.987 1.522 1.697 1.967a4.437 4.437 0 0 0 2.394.668c.88 0 1.676-.222 2.386-.668.715-.445 1.28-1.1 1.697-1.967.422-.866.633-1.93.633-3.189ZM20.2 18.722V.455h1.676v18.267H20.2Zm0-3.495c-.738 0-1.41-.132-2.017-.398a4.511 4.511 0 0 1-1.562-1.143 5.253 5.253 0 0 1-1.009-1.783c-.236-.69-.355-1.458-.355-2.3 0-.853.119-1.625.355-2.316a5.241 5.241 0 0 1 1.009-1.79 4.395 4.395 0 0 1 1.562-1.143c.606-.27 1.279-.405 2.017-.405h.512v11.278H20.2Zm0-1.505h.284V5.455H20.2c-.558 0-1.044.113-1.456.34a2.921 2.921 0 0 0-1.022.917 4.207 4.207 0 0 0-.597 1.32 6.282 6.282 0 0 0-.192 1.57c0 .73.116 1.406.348 2.031.232.626.59 1.13 1.073 1.513.483.384 1.098.576 1.846.576Zm1.676 1.505h-.51V3.95h.51c.74 0 1.411.135 2.017.405a4.395 4.395 0 0 1 1.563 1.143 5.241 5.241 0 0 1 1.009 1.79c.236.691.355 1.463.355 2.315 0 .843-.119 1.61-.355 2.301a5.253 5.253 0 0 1-1.009 1.783 4.511 4.511 0 0 1-1.563 1.143c-.606.266-1.278.398-2.017.398Zm0-1.505c.564 0 1.05-.11 1.456-.327.412-.223.75-.526 1.016-.91.27-.387.469-.828.597-1.32a6.039 6.039 0 0 0 .198-1.563c0-.729-.116-1.408-.348-2.038-.232-.63-.589-1.139-1.072-1.527-.483-.388-1.098-.582-1.847-.582h-.284v8.267h.284ZM33.814 15.227c-.985 0-1.85-.234-2.593-.703-.738-.469-1.316-1.124-1.733-1.967-.412-.843-.618-1.828-.618-2.955 0-1.136.206-2.128.618-2.976.417-.847.995-1.505 1.733-1.974.744-.469 1.608-.703 2.593-.703.984 0 1.846.234 2.585.703.743.469 1.32 1.127 1.733 1.974.416.848.625 1.84.625 2.976 0 1.127-.209 2.112-.625 2.955-.412.843-.99 1.498-1.733 1.967-.739.469-1.6.703-2.585.703Zm0-1.505c.748 0 1.363-.192 1.846-.576.483-.383.84-.888 1.073-1.513a5.792 5.792 0 0 0 .348-2.03c0-.73-.116-1.41-.348-2.04-.232-.629-.59-1.138-1.073-1.526-.483-.388-1.098-.582-1.846-.582s-1.364.194-1.847.582c-.483.388-.84.897-1.072 1.527a5.851 5.851 0 0 0-.348 2.038c0 .73.116 1.406.348 2.031.232.626.589 1.13 1.072 1.513.483.384 1.099.576 1.847.576ZM41.315 19.09v-15h1.62v1.734h.198c.124-.19.294-.431.512-.725.222-.298.54-.563.952-.795.416-.237.98-.355 1.69-.355.919 0 1.728.23 2.429.689.7.46 1.248 1.11 1.64 1.953.393.843.59 1.837.59 2.983 0 1.155-.197 2.157-.59 3.004-.392.843-.937 1.496-1.633 1.96-.696.46-1.499.69-2.408.69-.7 0-1.261-.117-1.683-.349-.421-.236-.746-.504-.973-.802a10.75 10.75 0 0 1-.526-.753h-.142v5.767h-1.676Zm1.648-9.545c0 .824.12 1.551.362 2.18.242.626.594 1.116 1.058 1.471.464.35 1.033.526 1.705.526.7 0 1.286-.185 1.754-.554.474-.374.829-.876 1.066-1.506.241-.635.362-1.34.362-2.117 0-.767-.119-1.458-.355-2.073-.232-.62-.585-1.11-1.059-1.47-.468-.365-1.058-.547-1.768-.547-.682 0-1.255.172-1.719.518-.464.34-.814.82-1.05 1.435-.238.61-.356 1.323-.356 2.137ZM59.469 12.727l3.807-8.636h1.59L60.151 15h-1.364l-4.63-10.91h1.562l3.75 8.637Zm-4.29-8.636V15h-1.676V4.09h1.676ZM63.759 15V4.09h1.676V15h-1.677ZM70.179 12.528l5.256-8.437h1.931V15H75.69V6.562L70.463 15h-1.96V4.09h1.676v8.438ZM78.952 5.653V4.091h8.864v1.562h-3.58V15H82.56V5.653h-3.608ZM91.71 8.04h3.125c1.278 0 2.256.324 2.933.973.677.648 1.015 1.47 1.015 2.464 0 .654-.151 1.248-.454 1.783-.303.53-.748.954-1.335 1.271-.588.313-1.307.469-2.16.469h-4.573V4.09h1.676v9.348h2.898c.662 0 1.207-.176 1.633-.526.426-.35.64-.8.64-1.35 0-.577-.214-1.048-.64-1.413-.426-.364-.97-.547-1.633-.547H91.71V8.04ZM106.278 12.216h1.79c.038.492.26.866.667 1.122.412.256.947.384 1.606.384.672 0 1.247-.138 1.725-.412.479-.28.718-.73.718-1.35 0-.364-.09-.682-.27-.952a1.775 1.775 0 0 0-.76-.639c-.327-.151-.713-.227-1.158-.227h-1.875V8.636h1.875c.668 0 1.16-.151 1.478-.454.321-.303.482-.682.482-1.137 0-.487-.172-.878-.518-1.171-.346-.299-.836-.448-1.47-.448-.639 0-1.172.145-1.598.433-.426.284-.651.651-.675 1.101h-1.761a2.653 2.653 0 0 1 .54-1.555c.34-.455.804-.81 1.392-1.066.587-.26 1.259-.39 2.017-.39.767 0 1.432.135 1.995.405.569.265 1.006.627 1.314 1.086.313.455.469.971.469 1.549 0 .615-.173 1.112-.518 1.491a2.87 2.87 0 0 1-1.3.81v.113c.412.029.769.161 1.072.398.308.232.547.537.718.916.17.374.255.789.255 1.243 0 .663-.177 1.24-.532 1.733-.356.488-.843.867-1.463 1.136-.621.266-1.329.398-2.124.398-.772 0-1.463-.125-2.074-.376-.611-.256-1.096-.609-1.456-1.058a2.631 2.631 0 0 1-.561-1.577ZM120.053 15.256c-.691 0-1.319-.13-1.882-.39a3.233 3.233 0 0 1-1.343-1.144c-.331-.502-.497-1.108-.497-1.819 0-.625.123-1.131.37-1.52.246-.392.575-.7.987-.923a5.187 5.187 0 0 1 1.363-.497 16.652 16.652 0 0 1 1.513-.27c.663-.085 1.201-.149 1.612-.192.417-.047.72-.125.91-.234.194-.109.291-.298.291-.568v-.057c0-.7-.192-1.245-.576-1.633-.378-.389-.954-.583-1.725-.583-.801 0-1.428.175-1.882.526-.455.35-.775.724-.959 1.122l-1.591-.568c.284-.663.663-1.18 1.136-1.549a4.255 4.255 0 0 1 1.563-.78 6.487 6.487 0 0 1 1.676-.228c.35 0 .753.042 1.207.128.459.08.902.248 1.328.504.431.256.789.642 1.073 1.158.284.516.426 1.207.426 2.074V15h-1.676v-1.477h-.085c-.114.236-.303.49-.569.76-.265.27-.618.5-1.058.689-.44.189-.978.284-1.612.284Zm.256-1.506c.662 0 1.221-.13 1.676-.39.459-.261.805-.597 1.037-1.01.236-.411.355-.844.355-1.299V9.517c-.071.085-.228.163-.469.234a7.897 7.897 0 0 1-.824.178 37.42 37.42 0 0 1-1.605.213c-.436.057-.843.15-1.222.277-.374.123-.677.31-.909.561-.227.246-.341.582-.341 1.009 0 .582.216 1.022.647 1.32.435.294.987.441 1.655.441ZM128.112 15V4.09h1.676v4.745h1.108l3.921-4.744h2.159l-4.404 5.256L137.033 15h-2.159l-3.58-4.602h-1.506V15h-1.676ZM142.065 15.256c-.692 0-1.319-.13-1.882-.39a3.233 3.233 0 0 1-1.343-1.144c-.331-.502-.497-1.108-.497-1.819 0-.625.123-1.131.369-1.52.247-.392.576-.7.988-.923a5.187 5.187 0 0 1 1.363-.497 16.59 16.59 0 0 1 1.513-.27c.663-.085 1.2-.149 1.612-.192.417-.047.72-.125.909-.234.194-.109.291-.298.291-.568v-.057c0-.7-.191-1.245-.575-1.633-.379-.389-.954-.583-1.726-.583-.8 0-1.427.175-1.882.526-.454.35-.774.724-.959 1.122l-1.59-.568c.284-.663.662-1.18 1.136-1.549a4.259 4.259 0 0 1 1.562-.78 6.494 6.494 0 0 1 1.677-.228c.35 0 .752.042 1.207.128.459.08.902.248 1.328.504.431.256.788.642 1.072 1.158.285.516.427 1.207.427 2.074V15h-1.677v-1.477h-.085c-.113.236-.303.49-.568.76-.265.27-.618.5-1.058.689-.441.189-.978.284-1.612.284Zm.255-1.506c.663 0 1.222-.13 1.676-.39.46-.261.805-.597 1.037-1.01.237-.411.355-.844.355-1.299V9.517c-.071.085-.227.163-.468.234a7.954 7.954 0 0 1-.824.178c-.308.047-.609.09-.902.128-.289.033-.523.061-.703.085-.436.057-.843.15-1.222.277-.374.123-.677.31-.909.561-.227.246-.341.582-.341 1.009 0 .582.216 1.022.646 1.32.436.294.988.441 1.655.441ZM149.442 12.216h1.79c.038.492.26.866.667 1.122.412.256.947.384 1.606.384.672 0 1.247-.138 1.725-.412.479-.28.718-.73.718-1.35 0-.364-.09-.682-.27-.952a1.775 1.775 0 0 0-.76-.639c-.327-.151-.713-.227-1.158-.227h-1.875V8.636h1.875c.668 0 1.16-.151 1.478-.454.322-.303.483-.682.483-1.137 0-.487-.173-.878-.519-1.171-.346-.299-.836-.448-1.47-.448-.639 0-1.172.145-1.598.433-.426.284-.651.651-.675 1.101h-1.761a2.653 2.653 0 0 1 .54-1.555c.34-.455.804-.81 1.392-1.066.587-.26 1.259-.39 2.017-.39.767 0 1.432.135 1.995.405.569.265 1.007.627 1.314 1.086.313.455.469.971.469 1.549 0 .615-.173 1.112-.518 1.491a2.87 2.87 0 0 1-1.3.81v.113c.412.029.769.161 1.072.398.308.232.547.537.718.916.17.374.255.789.255 1.243 0 .663-.177 1.24-.532 1.733-.355.488-.843.867-1.463 1.136-.621.266-1.329.398-2.124.398-.772 0-1.463-.125-2.074-.376-.611-.256-1.096-.609-1.456-1.058a2.631 2.631 0 0 1-.561-1.577Z" fill="#fff"/></svg>