<svg width="169" height="18" fill="none" xmlns="http://www.w3.org/2000/svg"><path d="M.585 14V.91H5.01c1.027 0 1.866.184 2.518.555.656.367 1.142.863 1.457 1.49.316.626.473 1.325.473 2.096 0 .771-.157 1.472-.473 2.103-.31.63-.792 1.134-1.444 1.509-.652.37-1.487.556-2.506.556h-3.17V7.813h3.119c.703 0 1.268-.122 1.694-.365.426-.243.735-.57.927-.984.196-.418.294-.889.294-1.413s-.098-.993-.294-1.406a2.098 2.098 0 0 0-.934-.972c-.43-.238-1.001-.358-1.713-.358H2.17V14H.585ZM14.696 14.23a3.99 3.99 0 0 1-1.694-.351 2.907 2.907 0 0 1-1.208-1.03c-.299-.451-.448-.997-.448-1.636 0-.562.111-1.018.333-1.368.221-.354.517-.63.888-.83.37-.201.78-.35 1.227-.448.452-.103.906-.183 1.362-.243.596-.077 1.08-.134 1.45-.173.376-.042.649-.113.82-.21.174-.099.261-.27.261-.512v-.051c0-.63-.172-1.12-.518-1.47-.34-.35-.858-.524-1.553-.524-.72 0-1.285.157-1.694.473-.409.315-.697.652-.863 1.01l-1.431-.512c.255-.596.596-1.061 1.022-1.393.43-.337.9-.571 1.406-.703a5.838 5.838 0 0 1 1.509-.205c.315 0 .678.038 1.087.115.413.072.811.224 1.195.454.388.23.71.577.965 1.042.256.464.384 1.086.384 1.866V14h-1.509v-1.33h-.077a2.655 2.655 0 0 1-.51.684c-.24.243-.557.45-.953.62-.397.17-.88.256-1.451.256Zm.23-1.355c.596 0 1.1-.117 1.508-.352a2.392 2.392 0 0 0 1.253-2.077v-1.38c-.064.076-.204.146-.422.21-.213.06-.46.113-.741.16a33.747 33.747 0 0 1-1.445.192 5.761 5.761 0 0 0-1.1.25c-.336.11-.609.278-.817.504-.205.222-.307.524-.307.908 0 .524.194.92.581 1.189.393.264.889.396 1.49.396ZM29.236.5l.767.92c-.298.29-.643.493-1.035.608a5.79 5.79 0 0 1-1.33.21c-.494.026-1.044.052-1.65.077-.681.026-1.246.192-1.693.499-.448.307-.793.75-1.036 1.33-.242.579-.398 1.29-.466 2.134h.128c.332-.613.792-1.065 1.38-1.355a4.223 4.223 0 0 1 1.892-.434c.767 0 1.458.179 2.071.537.614.358 1.1.888 1.458 1.591.358.703.537 1.57.537 2.602 0 1.027-.183 1.913-.55 2.659-.362.746-.872 1.32-1.528 1.726-.652.4-1.417.6-2.294.6-.878 0-1.648-.206-2.308-.62-.66-.417-1.174-1.035-1.54-1.853-.367-.823-.55-1.839-.55-3.05V7.635c0-2.187.37-3.844 1.112-4.973.746-1.13 1.867-1.714 3.362-1.752.529-.017 1-.021 1.413-.013.413.009.773-.01 1.08-.057.307-.047.567-.16.78-.339Zm-3.35 12.35c.593 0 1.102-.15 1.528-.448.43-.298.76-.718.991-1.26.23-.545.345-1.186.345-1.923 0-.716-.117-1.326-.351-1.828-.23-.503-.56-.887-.991-1.15-.43-.265-.946-.397-1.547-.397-.439 0-.833.074-1.183.223-.349.15-.647.37-.894.659a3.09 3.09 0 0 0-.576 1.06 5.015 5.015 0 0 0-.21 1.433c0 1.1.257 1.98.773 2.64.515.66 1.22.99 2.116.99ZM36.555 14.204c-.886 0-1.664-.21-2.333-.632-.665-.422-1.185-1.012-1.56-1.77-.37-.76-.556-1.646-.556-2.66 0-1.023.185-1.915.556-2.678.375-.763.895-1.355 1.56-1.777.669-.422 1.447-.633 2.333-.633.886 0 1.662.21 2.327.633.669.422 1.189 1.014 1.56 1.777.374.763.562 1.655.562 2.678 0 1.014-.188 1.9-.563 2.66-.37.758-.89 1.348-1.56 1.77-.664.422-1.44.633-2.326.633Zm0-1.355c.673 0 1.227-.172 1.662-.517.434-.346.756-.8.965-1.362a5.213 5.213 0 0 0 .313-1.828c0-.656-.104-1.268-.313-1.834a3.092 3.092 0 0 0-.965-1.375c-.435-.35-.989-.524-1.662-.524-.673 0-1.227.175-1.662.524-.435.35-.757.808-.965 1.375a5.266 5.266 0 0 0-.313 1.834c0 .656.104 1.266.313 1.828.209.563.53 1.016.965 1.362.435.345.989.517 1.662.517ZM42.023 5.588V4.182H50v1.406H46.78V14H45.27V5.588h-3.247ZM53.505 7.736h2.813c1.15 0 2.03.292 2.64.876.609.583.913 1.323.913 2.217 0 .589-.136 1.123-.409 1.605-.272.477-.673.859-1.201 1.144-.529.281-1.177.422-1.944.422h-4.116V4.182h1.508v8.412h2.608c.597 0 1.087-.158 1.47-.473.384-.316.576-.72.576-1.215 0-.52-.192-.944-.575-1.272-.384-.328-.874-.492-1.47-.492h-2.813V7.736ZM61.431 14V4.182h1.509V14H61.43ZM72.272 11.776l4.73-7.594h1.739V14h-1.509V6.406L72.528 14h-1.765V4.182h1.509v7.594ZM80.89 11.494h1.61c.035.444.235.78.602 1.01.37.23.852.345 1.444.345.605 0 1.123-.123 1.554-.37.43-.252.645-.657.645-1.215 0-.328-.08-.613-.243-.856a1.598 1.598 0 0 0-.684-.576c-.294-.136-.641-.204-1.041-.204h-1.688V8.273h1.688c.6 0 1.043-.137 1.329-.41.29-.272.435-.613.435-1.022 0-.439-.156-.79-.467-1.055-.311-.268-.752-.402-1.323-.402-.575 0-1.055.13-1.438.39-.384.255-.586.585-.608.99H81.12c.017-.528.18-.995.486-1.4.307-.409.724-.728 1.253-.958.528-.235 1.133-.352 1.815-.352.69 0 1.29.121 1.796.364.512.239.906.565 1.183.978.281.41.422.874.422 1.394 0 .554-.156 1.001-.467 1.342a2.58 2.58 0 0 1-1.17.729v.102c.371.026.693.145.966.358.277.209.492.484.645.825.154.336.23.71.23 1.118 0 .597-.16 1.117-.48 1.56-.319.439-.758.78-1.316 1.023-.558.238-1.195.357-1.911.357-.695 0-1.317-.112-1.867-.338-.55-.23-.986-.548-1.31-.953a2.368 2.368 0 0 1-.505-1.419ZM96.586 4.182l2.352 4.014 2.352-4.014h1.739l-3.17 4.909 3.17 4.909h-1.739l-2.352-3.81L96.586 14h-1.739l3.12-4.91-3.12-4.908h1.739ZM106.153 17.682c-.256 0-.484-.021-.684-.064a1.792 1.792 0 0 1-.415-.115l.383-1.33c.367.094.69.128.972.103.281-.026.53-.152.748-.378.221-.221.424-.581.607-1.08l.281-.767-3.631-9.87h1.637l2.71 7.825h.102l2.711-7.824h1.636l-4.168 11.25c-.187.507-.419.927-.696 1.26a2.61 2.61 0 0 1-.966.747 2.973 2.973 0 0 1-1.227.243ZM113.327 16.813v-4.22h.818a3.73 3.73 0 0 0 .895-1.54c.11-.336.204-.746.281-1.227.077-.486.145-1.072.204-1.758l.333-3.886h6.238v8.412h1.509v4.219h-1.509V14h-7.261v2.813h-1.508Zm2.531-4.22h4.73V5.589h-3.324l-.256 2.48a27.504 27.504 0 0 1-.396 2.691c-.158.767-.409 1.379-.754 1.835ZM129.596 14.204c-.886 0-1.664-.21-2.333-.632-.665-.422-1.185-1.012-1.56-1.77-.371-.76-.556-1.646-.556-2.66 0-1.023.185-1.915.556-2.678.375-.763.895-1.355 1.56-1.777.669-.422 1.447-.633 2.333-.633.886 0 1.662.21 2.327.633.669.422 1.189 1.014 1.559 1.777.375.763.563 1.655.563 2.678 0 1.014-.188 1.9-.563 2.66-.37.758-.89 1.348-1.559 1.77-.665.422-1.441.633-2.327.633Zm0-1.355c.673 0 1.227-.172 1.662-.517.434-.346.756-.8.965-1.362a5.208 5.208 0 0 0 .313-1.828c0-.656-.104-1.268-.313-1.834a3.098 3.098 0 0 0-.965-1.375c-.435-.35-.989-.524-1.662-.524-.673 0-1.227.175-1.662.524a3.09 3.09 0 0 0-.965 1.375 5.261 5.261 0 0 0-.313 1.834c0 .656.104 1.266.313 1.828.209.563.53 1.016.965 1.362.435.345.989.517 1.662.517ZM135.33 14l3.988-4.986-3.937-4.832h1.789l3.273 4.193h.818V4.182h1.509v4.193h.793l3.272-4.193h1.79l-3.912 4.832L148.676 14h-1.815l-3.324-4.219h-.767V14h-1.509V9.781h-.767L137.145 14h-1.815ZM150.832 14V4.182h1.508v4.27h.998l3.528-4.27h1.943l-3.963 4.73L158.86 14h-1.943l-3.222-4.142h-1.355V14h-1.508ZM162.008 11.776l4.73-7.594h1.739V14h-1.508V6.406L162.264 14H160.5V4.182h1.508v7.594Z" fill="#fff"/></svg>