<svg width="79" height="18" fill="none" xmlns="http://www.w3.org/2000/svg"><path d="M11.12 5H9.533a3.295 3.295 0 0 0-1.336-2.071 3.582 3.582 0 0 0-1.093-.537c-.4-.12-.818-.179-1.253-.179-.792 0-1.51.2-2.154.6-.64.401-1.148.992-1.528 1.772-.375.78-.562 1.736-.562 2.87 0 1.133.187 2.09.562 2.87.38.78.889 1.37 1.528 1.77.644.4 1.362.601 2.154.601.435 0 .853-.06 1.253-.179.4-.12.765-.296 1.093-.53A3.358 3.358 0 0 0 9.534 9.91h1.585a5.28 5.28 0 0 1-.652 1.795 4.91 4.91 0 0 1-1.176 1.349 5.149 5.149 0 0 1-1.579.837c-.58.192-1.2.288-1.86.288-1.116 0-2.11-.273-2.978-.818-.87-.546-1.554-1.321-2.052-2.327-.499-1.006-.748-2.199-.748-3.58 0-1.38.25-2.573.748-3.579.498-1.006 1.182-1.781 2.052-2.327C3.743 1.003 4.736.73 5.852.73c.66 0 1.28.096 1.86.288.584.192 1.11.473 1.58.844.468.366.86.813 1.175 1.342.316.524.533 1.123.652 1.796ZM17.465 14.204c-.886 0-1.664-.21-2.333-.632-.665-.422-1.185-1.012-1.56-1.77-.37-.76-.556-1.646-.556-2.66 0-1.023.185-1.915.556-2.678.375-.763.895-1.355 1.56-1.777.669-.422 1.447-.633 2.333-.633.886 0 1.662.21 2.327.633.669.422 1.189 1.014 1.56 1.777.374.763.562 1.655.562 2.678 0 1.014-.188 1.9-.563 2.66-.37.758-.89 1.348-1.56 1.77-.664.422-1.44.633-2.326.633Zm0-1.355c.673 0 1.227-.172 1.662-.517.435-.346.756-.8.965-1.362a5.213 5.213 0 0 0 .313-1.828c0-.656-.104-1.268-.313-1.834a3.092 3.092 0 0 0-.965-1.375c-.435-.35-.989-.524-1.662-.524-.673 0-1.227.175-1.662.524-.435.35-.756.808-.965 1.375a5.266 5.266 0 0 0-.313 1.834c0 .656.104 1.266.313 1.828.209.563.53 1.016.965 1.362.435.345.989.517 1.662.517ZM31.938 4.182v8.412h1.38v4.577H31.81V14h-7.593V4.182h1.508v8.412h4.705V4.182h1.508ZM36.742 14.102c-.316 0-.586-.113-.812-.338a1.108 1.108 0 0 1-.339-.812c0-.316.113-.586.339-.812.226-.226.496-.339.812-.339.315 0 .586.113.812.339.225.226.338.496.338.812 0 .209-.053.4-.16.575-.102.175-.24.315-.415.422-.17.102-.362.153-.575.153ZM44.588 14.204c-.92 0-1.713-.217-2.378-.651-.665-.435-1.176-1.034-1.534-1.797-.358-.762-.537-1.634-.537-2.614 0-.997.183-1.877.55-2.64.37-.767.886-1.366 1.547-1.796.665-.435 1.44-.652 2.327-.652.69 0 1.312.128 1.866.383a3.575 3.575 0 0 1 1.361 1.074c.354.46.574.998.659 1.611H46.94c-.115-.447-.37-.844-.767-1.189-.392-.35-.92-.524-1.585-.524-.588 0-1.104.154-1.547.46-.439.303-.782.731-1.029 1.285-.243.55-.364 1.195-.364 1.937 0 .758.119 1.419.358 1.981.243.563.584 1 1.022 1.31.444.312.964.467 1.56.467.392 0 .748-.068 1.068-.204.32-.136.59-.332.811-.588.222-.256.38-.563.473-.92h1.509a3.495 3.495 0 0 1-.633 1.565c-.332.46-.773.827-1.323 1.1-.546.268-1.18.402-1.905.402ZM54.77 14.204c-.945 0-1.762-.208-2.448-.626a4.204 4.204 0 0 1-1.578-1.764c-.367-.759-.55-1.64-.55-2.646s.183-1.892.55-2.66c.37-.77.886-1.372 1.547-1.802.664-.435 1.44-.652 2.326-.652.512 0 1.017.085 1.515.256.499.17.953.447 1.362.83.409.38.735.883.978 1.51.242.626.364 1.397.364 2.313v.64h-7.568V8.297h6.034c0-.554-.111-1.048-.333-1.483a2.505 2.505 0 0 0-.933-1.029c-.4-.251-.873-.377-1.419-.377-.6 0-1.12.15-1.56.448-.434.294-.769.677-1.003 1.15a3.38 3.38 0 0 0-.352 1.521v.87c0 .741.128 1.37.384 1.885.26.512.62.902 1.08 1.17.46.264.995.396 1.605.396.396 0 .754-.055 1.073-.166.324-.115.603-.285.838-.511.234-.23.415-.516.543-.857l1.457.41a3.23 3.23 0 0 1-.773 1.303c-.362.371-.81.66-1.342.87-.533.204-1.132.306-1.796.306ZM60.217 5.588V4.182h7.977v1.406h-3.222V14h-1.508V5.588h-3.247ZM71.903 11.776l4.73-7.594h1.739V14h-1.509V6.406L72.16 14h-1.765V4.182h1.509v7.594Z" fill="#fff"/></svg>