<svg width="197" height="17" fill="none" xmlns="http://www.w3.org/2000/svg"><path d="M0 .179h1.585v11.633h4.603V.18h1.585v11.633h4.602V.18h1.585v13.09H0V.18ZM18.443 11.046l4.73-7.594h1.738v9.818h-1.508V5.676l-4.705 7.594h-1.764V3.452h1.509v7.594ZM27.674 16.952v-13.5h1.458v1.56h.179c.11-.171.264-.388.46-.653.2-.268.486-.507.857-.716.375-.213.882-.32 1.52-.32.827 0 1.556.208 2.187.62.63.414 1.123 1 1.476 1.759.354.758.531 1.653.531 2.684 0 1.04-.177 1.941-.53 2.704-.354.759-.844 1.347-1.47 1.764-.627.414-1.35.62-2.168.62-.63 0-1.135-.104-1.515-.313-.379-.213-.67-.454-.875-.722a9.704 9.704 0 0 1-.473-.678h-.128v5.19h-1.509Zm1.483-8.591c0 .741.109 1.395.326 1.962.218.563.535 1.004.953 1.323.417.316.929.473 1.534.473.63 0 1.157-.166 1.579-.498.426-.337.745-.789.959-1.355a5.318 5.318 0 0 0 .325-1.905c0-.69-.106-1.313-.32-1.867-.208-.558-.525-.999-.952-1.323-.421-.328-.952-.492-1.591-.492-.614 0-1.13.156-1.547.467-.418.306-.733.737-.946 1.29-.213.55-.32 1.192-.32 1.925ZM42.632 13.474c-.887 0-1.664-.21-2.333-.632-.665-.422-1.185-1.013-1.56-1.771-.37-.758-.556-1.645-.556-2.66 0-1.022.185-1.915.556-2.677.375-.763.895-1.355 1.56-1.777.669-.422 1.446-.633 2.333-.633.886 0 1.662.21 2.327.633.668.422 1.188 1.014 1.56 1.777.374.762.562 1.655.562 2.678 0 1.014-.188 1.9-.563 2.659-.37.758-.89 1.349-1.56 1.77-.664.423-1.44.633-2.326.633Zm0-1.355c.673 0 1.227-.172 1.662-.517.434-.346.756-.8.965-1.362a5.213 5.213 0 0 0 .313-1.828c0-.656-.104-1.268-.313-1.835a3.092 3.092 0 0 0-.965-1.374c-.435-.35-.989-.524-1.662-.524-.673 0-1.227.175-1.662.524-.435.35-.757.808-.965 1.374a5.266 5.266 0 0 0-.314 1.835c0 .656.105 1.266.314 1.828.208.563.53 1.016.965 1.362.434.345.989.517 1.662.517ZM60.07 6.021v1.407h-5.726V6.02h5.727ZM79.038 6.724c0 1.381-.25 2.574-.748 3.58-.499 1.006-1.183 1.781-2.052 2.327-.87.545-1.862.818-2.979.818-1.116 0-2.11-.273-2.978-.818-.87-.546-1.554-1.321-2.052-2.327-.499-1.006-.748-2.199-.748-3.58 0-1.38.25-2.573.748-3.58.498-1.005 1.182-1.78 2.052-2.326C71.15.273 72.142 0 73.258 0c1.117 0 2.11.273 2.979.818.87.546 1.553 1.321 2.052 2.327.498 1.006.748 2.199.748 3.58Zm-1.534 0c0-1.133-.19-2.09-.57-2.87-.374-.78-.884-1.37-1.527-1.77-.64-.4-1.355-.601-2.148-.601-.792 0-1.51.2-2.154.6-.64.401-1.148.992-1.528 1.771-.375.78-.562 1.737-.562 2.87 0 1.134.187 2.09.562 2.87.38.78.889 1.37 1.528 1.771.644.4 1.362.6 2.154.6.793 0 1.509-.2 2.148-.6.643-.4 1.153-.99 1.528-1.77.379-.78.569-1.737.569-2.87ZM80.885 10.764h1.61c.035.443.235.78.602 1.01.37.23.852.345 1.444.345.605 0 1.123-.123 1.553-.37.43-.252.646-.657.646-1.215 0-.328-.08-.614-.243-.856a1.6 1.6 0 0 0-.684-.576c-.294-.136-.641-.204-1.042-.204h-1.687V7.543h1.687c.601 0 1.044-.137 1.33-.41.29-.272.434-.613.434-1.022 0-.44-.155-.79-.466-1.055-.311-.268-.752-.403-1.323-.403-.575 0-1.055.13-1.438.39-.384.256-.586.586-.608.991h-1.585c.017-.528.179-.995.486-1.4.307-.409.724-.728 1.253-.959.528-.234 1.133-.351 1.815-.351.69 0 1.29.121 1.796.364.512.239.906.565 1.183.978.281.41.422.874.422 1.394 0 .554-.156 1.001-.467 1.342-.311.34-.701.584-1.17.729v.102c.371.026.693.145.965.358.277.209.493.484.646.824.153.337.23.71.23 1.12 0 .596-.16 1.116-.48 1.559-.319.439-.758.78-1.316 1.023-.558.238-1.195.357-1.911.357-.695 0-1.317-.113-1.867-.338-.55-.23-.986-.548-1.31-.953a2.368 2.368 0 0 1-.505-1.419ZM94.382 13.474c-.887 0-1.664-.21-2.333-.632-.665-.422-1.185-1.013-1.56-1.771-.37-.758-.556-1.645-.556-2.66 0-1.022.185-1.915.556-2.677.375-.763.895-1.355 1.56-1.777.669-.422 1.446-.633 2.333-.633.886 0 1.662.21 2.326.633.67.422 1.19 1.014 1.56 1.777.375.762.563 1.655.563 2.678 0 1.014-.188 1.9-.563 2.659-.37.758-.89 1.349-1.56 1.77-.664.423-1.44.633-2.326.633Zm0-1.355c.673 0 1.227-.172 1.662-.517.434-.346.756-.8.965-1.362a5.213 5.213 0 0 0 .313-1.828c0-.656-.104-1.268-.313-1.835a3.092 3.092 0 0 0-.965-1.374c-.435-.35-.989-.524-1.662-.524-.674 0-1.228.175-1.662.524-.435.35-.757.808-.965 1.374a5.266 5.266 0 0 0-.314 1.835c0 .656.105 1.266.314 1.828.208.563.53 1.016.965 1.362.434.345.988.517 1.662.517ZM101.133 16.952v-13.5h1.458v1.56h.179c.111-.171.264-.388.46-.653.2-.268.486-.507.856-.716.375-.213.883-.32 1.522-.32.826 0 1.555.208 2.186.62.631.414 1.123 1 1.476 1.759.354.758.531 1.653.531 2.684 0 1.04-.177 1.941-.531 2.704-.353.759-.843 1.347-1.47 1.764-.626.414-1.348.62-2.167.62-.63 0-1.135-.104-1.515-.313-.379-.213-.671-.454-.875-.722a9.602 9.602 0 0 1-.473-.678h-.128v5.19h-1.509Zm1.483-8.591c0 .741.109 1.395.326 1.962.218.563.535 1.004.953 1.323.417.316.929.473 1.534.473.63 0 1.157-.166 1.579-.498.426-.337.745-.789.958-1.355.218-.571.326-1.206.326-1.905 0-.69-.106-1.313-.319-1.867-.209-.558-.526-.999-.953-1.323-.421-.328-.952-.492-1.591-.492-.614 0-1.129.156-1.547.467-.418.306-.733.737-.946 1.29-.213.55-.32 1.192-.32 1.925ZM118.673 7.67v1.407h-5.42V7.67h5.42Zm-5.062-4.218v9.818h-1.509V3.452h1.509Zm6.213 0v9.818h-1.509V3.452h1.509ZM124.087 11.046l4.73-7.594h1.739v9.818h-1.509V5.676l-4.704 7.594h-1.764V3.452h1.508v7.594ZM133.319 13.27V3.452h1.508v4.27h.998l3.528-4.27h1.943l-3.963 4.73 4.014 5.088h-1.943l-3.221-4.142h-1.356v4.142h-1.508ZM147.001 16.082v-4.218h.818a3.73 3.73 0 0 0 .518-.678c.145-.243.271-.53.377-.863.111-.336.205-.746.281-1.227a25.87 25.87 0 0 0 .205-1.758l.332-3.886h6.239v8.412h1.508v4.218h-1.508V13.27h-7.261v2.812h-1.509Zm2.531-4.218h4.73V4.858h-3.323l-.256 2.48a28.127 28.127 0 0 1-.396 2.691c-.158.767-.41 1.379-.755 1.835ZM165.188 13.27V4.832h-2.608c-.588 0-1.05.137-1.387.41-.337.272-.505.647-.505 1.124 0 .47.151.838.454 1.106.307.269.726.403 1.259.403h3.171v1.406h-3.171c-.665 0-1.238-.117-1.719-.351a2.572 2.572 0 0 1-1.113-1.004c-.26-.439-.389-.959-.389-1.56 0-.605.136-1.125.409-1.56a2.65 2.65 0 0 1 1.169-1.003c.512-.234 1.119-.351 1.822-.351h4.04v9.818h-1.432Zm-6.545 0 2.787-4.884h1.636l-2.787 4.884h-1.636ZM168.053 4.858V3.452h7.978v1.406h-3.222v8.412H171.3V4.858h-3.247ZM181.838 13.474c-.946 0-1.762-.208-2.448-.626a4.199 4.199 0 0 1-1.579-1.764c-.367-.759-.55-1.64-.55-2.646s.183-1.893.55-2.66c.37-.77.886-1.372 1.547-1.802.664-.435 1.44-.652 2.326-.652a4.65 4.65 0 0 1 1.515.256c.499.17.953.447 1.362.83.409.38.735.883.978 1.509.243.626.364 1.398.364 2.314v.64h-7.568V7.567h6.034c0-.554-.111-1.048-.332-1.483a2.51 2.51 0 0 0-.934-1.029c-.4-.251-.873-.377-1.419-.377-.601 0-1.12.15-1.559.447-.435.294-.77.678-1.004 1.151-.234.473-.351.98-.351 1.521v.87c0 .741.127 1.37.383 1.885.26.512.62.901 1.08 1.17.461.264.995.396 1.605.396.396 0 .754-.055 1.074-.166.323-.115.603-.285.837-.511a2.33 2.33 0 0 0 .543-.857l1.458.41a3.242 3.242 0 0 1-.774 1.303c-.362.371-.809.66-1.342.87-.533.204-1.132.306-1.796.306ZM187.328 13.27v-1.406h.358c.294 0 .54-.058.736-.173.196-.12.353-.326.473-.62.123-.298.217-.712.281-1.24.068-.533.117-1.21.147-2.033l.179-4.346h6.545v9.818h-1.508V4.858h-3.605l-.154 3.503a15.838 15.838 0 0 1-.217 2.128c-.107.61-.271 1.121-.492 1.534-.218.414-.507.725-.87.934-.362.208-.816.313-1.361.313h-.512Z" fill="#fff"/></svg>